<svg xmlns="http://www.w3.org/2000/svg" viewBox="0 0 548.48 237.96"><defs><style>.cls-1{font-size:100.28px;font-family:MontserratAlternates-Bold, Montserrat Alternates;font-weight:700;}.cls-1,.cls-4{fill:#0099d8;}.cls-2,.cls-3{font-size:86.28px;}.cls-3{fill:#ff9420;}.cls-5{fill:#fff;}</style></defs><title>Asset 1</title><g id="Layer_2" data-name="Layer 2"><g id="Layer_1-2" data-name="Layer 1"><text class="cls-1" transform="translate(95.52 211.29)">C<tspan class="cls-2" x="65.48" y="0">ogni</tspan><tspan class="cls-3" x="240.37" y="0">Peak</tspan></text><path class="cls-4" d="M215,97.12c-.15.53-.33,1.06-.45,1.59a12.59,12.59,0,0,1-17.71,8.93c-2.43-1.09-2.78-.56-4.11.77-3,3-6,5.91-8.92,9a6.6,6.6,0,0,1-5.34,2.18c-3-.09-6.09,0-9.13,0a3.25,3.25,0,0,0-3.38,2.09,8.9,8.9,0,0,1-14,2.87,10.4,10.4,0,0,1-2.16-3,3.15,3.15,0,0,0-3.08-2q-17.83,0-35.67,0a2.73,2.73,0,0,0-2.94,2c-2.8,7.81-11.3,10.64-18.35,6.84-1-.56-1.92-.75-2.81.11-2.29,2.21-4.58,4.41-6.85,6.63-.87.86-.34,1.78-.07,2.71,1.13,4,.62,7.55-2.71,10.34a10,10,0,0,1-2.47,1.47,2.5,2.5,0,0,0-1.78,2.5c0,5.74,0,11.47,0,17.21,0,1.48.91,2,2.09,2.43,6.74,2.69,6.94,11.76,2.3,15.2a29,29,0,0,1-4.41,2.25H70.56c-.65-.24-1.29-.49-1.94-.72A8.77,8.77,0,0,1,63.82,176a3.68,3.68,0,0,0-.13-4.48Q53.78,155.8,44,140.05c-1-1.52-1.88-3.07-2.92-4.53a6.4,6.4,0,0,0-1.57-1.14,17.34,17.34,0,0,0-.82,1.94,4.18,4.18,0,0,0,0,1.23c0,4.7.08,9.41,0,14.1,0,2.09.4,3.35,2.59,4.25a8.76,8.76,0,0,1,4.7,11.25,9,9,0,0,1-11.14,5.47A8.82,8.82,0,0,1,28.57,165c-.37-3.78.89-6.92,4.3-8.72A4.12,4.12,0,0,0,35.31,152c-.1-5.18-.06-10.37,0-15.55a3.18,3.18,0,0,0-1.85-3.15c-4.09-2.22-5.81-6-4.58-10.44a3.76,3.76,0,0,0-1.22-4.19c-4.79-4.69-9.47-9.5-14.27-14.18a6.81,6.81,0,0,1-2.2-5.33c.08-6.7,0-13.41,0-20.12,0-2.22-.14-2.36-2.26-3.1A12.25,12.25,0,0,1,.45,66.34C.33,65.8.15,65.28,0,64.75V63.09c.16-.6.35-1.19.49-1.8,2-9.1,11.36-11.89,18.17-8.59,2.08,1,2.09,1,3.69-.58C33,41.47,43.66,30.78,54.36,20.17a4.21,4.21,0,0,0,1.24-4.93C53.69,9.46,58.39,3.29,64.34,3.66A8.91,8.91,0,0,1,72.4,8.87a2.91,2.91,0,0,0,3.06,1.91c.69,0,1.38,0,2.07,0h55.39c3.81,0,7.61,0,11.41,0a2.54,2.54,0,0,0,2.85-2.09A10.84,10.84,0,0,1,152,2.17c1.42-.84,3-1.45,4.47-2.17h5.39l1.54.63c7.66,3.06,10.6,10.87,6.76,18.21a2.27,2.27,0,0,0,.55,3.09Q180.86,32,190.94,42.16a2.57,2.57,0,0,0,3.3.64,8.34,8.34,0,0,1,9.62,1.48,8.45,8.45,0,0,1,2.31,9.84c-.78,2.08-.34,3.22,1.16,4.41.42.34.75.82,1.18,1.16a6.5,6.5,0,0,1,2.37,5.66c-.09,6.36,0,12.71,0,19.07a4.72,4.72,0,0,0,.51,2.78A19.44,19.44,0,0,1,215,95.46ZM55.88,80.87l.18.38A9,9,0,0,0,58,79.93c4.88-5.82,9.7-11.7,14.57-17.53A2.33,2.33,0,0,0,72.64,59a11.76,11.76,0,0,1-2.24-9.79,12.91,12.91,0,0,1,4.13-7.26c.87-.77,1.31-1.5.71-2.68-2.79-5.49-5.52-11-8.26-16.51a2.13,2.13,0,0,0-2-1.2,19.05,19.05,0,0,1-4.45-.79,2.45,2.45,0,0,0-2.93.69c-2.06,2.15-4.19,4.22-6.29,6.32L24.64,54.44C23.05,56,23,56.07,24,58A13,13,0,0,1,25,67.62a2.27,2.27,0,0,0,1.1,2.94q9.15,5.7,18.22,11.54a2,2,0,0,0,2.64,0A8.47,8.47,0,0,1,53,80.52C54,80.6,54.92,80.75,55.88,80.87ZM74,14.12v.47a2.75,2.75,0,0,0,.52.31q19.73,7.36,39.44,14.75a2.53,2.53,0,0,0,3.39-.92,8.56,8.56,0,0,1,7.43-3.4,8.76,8.76,0,0,1,8.49,8.3c.18,5.35-3,9.21-8,9.49a3.47,3.47,0,0,0-3.42,2.39c-3.3,7.76-6.64,15.51-10.09,23.21-.89,2-1.34,3.7.62,5.28a3.24,3.24,0,0,1,.76,1.22,1.9,1.9,0,0,0,2.2,1.15L131,74.16a2.17,2.17,0,0,0,1.95-1.86c.16-.74.35-1.48.57-2.21a12.37,12.37,0,0,1,10.4-8.65c2.47-.24,2.5-.28,3.06-2.79,1-4.52,2-9,3-13.56,1.38-6.15,2.74-12.29,4.12-18.43.28-1.23.27-2.26-1-3a12.76,12.76,0,0,1-6.14-7.76,2.11,2.11,0,0,0-2.27-1.72l-1.66,0H74ZM82.09,39a11.77,11.77,0,0,1,8.38,2.41c4.15,3.34,5.87,7.75,4.7,12.91s-4.72,8.42-10,9.66a11.84,11.84,0,0,1-6.92-.64,2.26,2.26,0,0,0-2.91.71c-5,6.11-10,12.16-15,18.28a2.62,2.62,0,0,0-.37,2A1.8,1.8,0,0,0,62,85.7c.41,0,.83-.1,1.23-.18,10.28-1.89,20.54-3.8,30.82-5.66a2.56,2.56,0,0,0,2.35-2.17c1.22-4.77,4-7,8.87-7.13a3,3,0,0,0,3-2q5.25-12.31,10.6-24.58a2.31,2.31,0,0,0-.53-3,10,10,0,0,1-3.1-6,3.59,3.59,0,0,0-1.43-1.81,8.54,8.54,0,0,0-2.1-.88L81.05,20.89c-2.59-1-5.19-1.91-7.78-2.88-1.29-.49-2.08.23-2.88,1.06A1.79,1.79,0,0,0,70,21.33c2.8,5.56,5.55,11.15,8.41,16.68a3,3,0,0,0,1.79,1A6.52,6.52,0,0,0,82.09,39ZM62.66,141.52A9.39,9.39,0,0,1,65,135.21c2.89-3,6.36-3.46,10.11-2.26a2.8,2.8,0,0,0,3.32-.76c2-2.05,4-4,6-6a2,2,0,0,0,.54-2.72,12.27,12.27,0,0,1-.7-10.43c.57-1.5.11-2.3-1.13-3.06Q72,103,60.83,96a1.91,1.91,0,0,0-2.59.12,9.28,9.28,0,0,1-6.11,2.25,2.62,2.62,0,0,0-2.61,2c-2,4.85-4,9.71-6.16,14.51a3.57,3.57,0,0,0,.74,4.59,8.48,8.48,0,0,1,.57,11.21c-1.45,1.86-1.49,1.89-.2,3.95Q51.6,146,58.77,157.46c2.57,4.1,5.12,8.22,7.71,12.31.49.78.86,2,2.09,1.65s1.13-1.6,1.14-2.6c0-5.47,0-10.93,0-16.4a3,3,0,0,0-2.07-3.16C64.26,147.74,63,144.75,62.66,141.52ZM14.14,88.68c0,3.18-.08,6.37,0,9.54a4.87,4.87,0,0,0,1,3c5.09,5.26,10.32,10.4,15.49,15.6a2.2,2.2,0,0,0,2.63.48,17.41,17.41,0,0,1,4-1,3,3,0,0,0,2.75-2.1c2.12-5.1,4.3-10.19,6.5-15.26A2.63,2.63,0,0,0,46,95.58a8.28,8.28,0,0,1-2.46-8.14,2.14,2.14,0,0,0-1.08-2.59q-9.22-5.79-18.39-11.67a2.1,2.1,0,0,0-2.62.12,25.73,25.73,0,0,1-5.26,2.78,2.58,2.58,0,0,0-2.05,2.85C14.17,82.18,14.14,85.43,14.14,88.68Zm114.7,27.52h0c5.88,0,11.76,0,17.64,0a3.09,3.09,0,0,0,3.23-2,11.66,11.66,0,0,1,2.75-3.54,2.76,2.76,0,0,0,1-3.24q-2.83-9.33-5.53-18.7a2.49,2.49,0,0,0-2.5-2,14.32,14.32,0,0,1-7.39-2.46,1.6,1.6,0,0,0-2.24.08c-.87.78-1.8,1.51-2.68,2.29-2.95,2.61-5.88,5.24-8.83,7.84-5.24,4.61-10.51,9.19-15.72,13.83-1.86,1.67-2,2-.85,4a6.46,6.46,0,0,1,.44,1.16c.92,2.67.92,2.69,3.83,2.69Zm44.87,0c1.66,0,3.33.11,5,0a4.57,4.57,0,0,0,2.61-1c3.35-3.19,6.58-6.51,9.86-9.78a1.63,1.63,0,0,0,.31-2.24,13.37,13.37,0,0,1-1.84-8.56A2.28,2.28,0,0,0,188,92c-1.49-.54-3-1.13-4.45-1.7-8.19-3.17-16.4-6.3-24.56-9.52a2.61,2.61,0,0,0-3.42.84,17.27,17.27,0,0,1-3.36,3,2.45,2.45,0,0,0-1,3.18q2.8,9.22,5.5,18.49a3,3,0,0,0,2.62,2.51,8.9,8.9,0,0,1,7.12,5.69,2.46,2.46,0,0,0,2.59,1.63C170.53,116.17,172.12,116.19,173.71,116.19ZM149.82,61a15.26,15.26,0,0,0,1.4,1.52c1.31,1.12,2.77,2.07,4,3.28a2.3,2.3,0,0,0,2.93.58c6.63-2.93,13.3-5.79,19.93-8.71,2.05-.9,2.12-1.13,1.13-3.1-2.47-4.86-5-9.71-7.48-14.56-2.34-4.54-4.72-9.06-7-13.64a2.23,2.23,0,0,0-3-1.41c-.33.09-.68.13-1,.19-3,.49-3,.49-3.69,3.47q-3,13.65-6.11,27.3C150.57,57.49,150.24,59.05,149.82,61ZM101.49,88.45a14.5,14.5,0,0,0-1-1.39c-.93-1-2-1.89-2.84-3a2.42,2.42,0,0,0-2.69-1Q79.32,86,63.73,88.83c-1.25.23-2.22.7-2.48,2.11s.68,1.84,1.56,2.4l11.41,7.17c3.69,2.3,7.39,4.59,11.08,6.9,1,.64,2,.91,3,0a12.84,12.84,0,0,1,7.5-2.64,2.14,2.14,0,0,0,2.24-1.94c1-4.44,2.13-8.86,3.2-13.3C101.34,89.3,101.38,89,101.49,88.45ZM158.13,73c0,4.22-.27,3.88,3.9,5.5,8.3,3.24,16.68,6.31,24.91,9.72,2.82,1.17,4.81,1.25,6.73-1.39.79-1.1,1.2-1.82.54-3.09-3.82-7.28-7.57-14.6-11.38-21.88-1-2-1.27-2-3.42-1.08l-9.12,4c-3.49,1.51-6.95,3.08-10.46,4.54-1.41.58-2.19,1.37-1.76,3A4.25,4.25,0,0,1,158.13,73Zm-56.92,31.13c-.29,1.69.83,2,1.69,2.56a2.06,2.06,0,0,0,2.81-.11c3.64-3.27,7.32-6.5,11-9.75,5.53-4.89,11-9.8,16.59-14.67.85-.75,1.45-1.38.9-2.62-.79-1.76-1.35-2.32-2.85-2.12-5.06.69-10.11,1.45-15.17,2.17A2.26,2.26,0,0,0,114,81.43c-.94,3.84-3.52,6-7.27,6.82a2.84,2.84,0,0,0-2.4,2.46c-.86,3.84-1.79,7.66-2.69,11.49C101.46,102.94,101.31,103.69,101.21,104.12Zm106-19.82a8.81,8.81,0,0,0,.29-1.35c0-6.08.05-12.15,0-18.23a5.26,5.26,0,0,0-1.11-2.55,22.63,22.63,0,0,0-1.86-1.94,2.82,2.82,0,0,0-3.45-.91c-3.1,1-6.29.9-8.76-1.48-1.61-1.55-2.93-1.53-4.75-.63-2.37,1.16-2.58,1.37-1.38,3.7,3.7,7.17,7.45,14.32,11.14,21.51a2.24,2.24,0,0,0,2.64,1.36,25.16,25.16,0,0,1,4.51-.06A18.23,18.23,0,0,1,207.19,84.3ZM167.5,23.4l-.37.23c.31.68.6,1.37.94,2q6.69,13,13.37,25.94c1.95,3.79,1.33,4.19,6.19,2a1.88,1.88,0,0,0,1.26-1.89,9.84,9.84,0,0,1,.48-3.45c.76-1.77.26-2.92-1-4.19-6.54-6.44-13-13-19.49-19.45C168.41,24.2,168,23.81,167.5,23.4Z"/><circle class="cls-5" cx="146" cy="73.78" r="10"/><circle class="cls-5" cx="202" cy="95.78" r="10"/><circle class="cls-5" cx="96" cy="117.78" r="10"/><circle class="cls-5" cx="159" cy="12.78" r="10"/><circle class="cls-5" cx="13" cy="63.78" r="10"/></g></g></svg>